<svg width="20" height="20" viewBox="0 0 20 20" fill="none" xmlns="http://www.w3.org/2000/svg">
<path fill-rule="evenodd" clip-rule="evenodd" d="M10 20C15.5002 20 20 15.52 20 10C20 4.48 15.5002 0 10 0C4.48 0 0 4.48 0 10C0 15.52 4.48 20 10 20Z" fill="#299400"/>
<path fill-rule="evenodd" clip-rule="evenodd" d="M9.99971 3.12532C13.4372 3.12532 15.7704 5.7713 15.7704 8.62547C15.7704 9.7713 15.5203 10.7713 14.937 12.0214C11.5203 12.0214 10.8955 14.2922 10.7496 15.8132L10.6454 16.8756L9.35404 16.8752L9.24979 15.8129C9.10396 14.2919 8.47908 12.0211 5.06239 12.0211C4.47908 10.771 4.229 9.77098 4.229 8.62516C4.229 5.77098 6.56223 3.125 9.99971 3.125V3.12532Z" fill="white"/>
</svg>
