<svg width="24" height="24" viewBox="0 0 24 24" fill="none" xmlns="http://www.w3.org/2000/svg">
<path d="M8.85889 17.3011C9.53917 18.1509 10.2293 19.2157 10.5921 19.8605C11.0338 20.6986 11.2152 21.2645 11.5445 22.2741C11.7378 22.8301 11.9192 22.9997 12.3037 22.9997C12.7237 22.9997 12.9149 22.7157 13.0628 22.2741C13.3685 21.3217 13.6071 20.598 13.9797 19.9059C14.7152 18.5808 15.6459 17.4017 16.551 16.2698C16.7995 15.9524 18.3868 14.0831 19.1006 12.6002C19.1006 12.6002 19.9721 10.9794 19.9721 8.71375C19.9721 6.59601 19.1104 5.12305 19.1104 5.12305L16.618 5.7915L15.0997 9.77854L14.7251 10.3228L14.6462 10.4253L14.5437 10.5495L14.3741 10.7526L14.1257 11.0011L12.7769 12.0994L9.41297 14.0476L8.85889 17.3011Z" fill="#34A853"/>
<path d="M5.38086 12.3279C6.20706 14.2091 7.78255 15.8516 8.85917 17.3009L14.5578 10.5493C14.5578 10.5493 13.7533 11.6023 12.304 11.6023C10.6831 11.6023 9.36988 10.3108 9.36988 8.68005C9.36988 7.55808 10.0383 6.78906 10.0383 6.78906L6.17354 7.82033L5.38086 12.3279Z" fill="#FBBC04"/>
<path d="M14.6246 1.35156C16.5156 1.96283 18.1364 3.24255 19.1105 5.13551L14.5556 10.562C14.5556 10.562 15.224 9.78115 15.224 8.67101C15.224 7.00481 13.8201 5.74875 12.3018 5.74875C10.8623 5.74875 10.0361 6.79185 10.0361 6.79185V3.36875L14.6246 1.35156Z" fill="#4285F4"/>
<path d="M6.42139 3.74085C7.55322 2.39211 9.53688 1 12.2777 1C13.6028 1 14.6104 1.35099 14.6104 1.35099L10.0358 6.7893H6.79603L6.42139 3.74085Z" fill="#1A73E8"/>
<path d="M5.38063 12.3275C5.38063 12.3275 4.6333 10.8427 4.6333 8.70323C4.6333 6.67618 5.42598 4.90745 6.43358 3.75195L10.048 6.79844L5.38063 12.3275Z" fill="#EA4335"/>
</svg>
