<svg width="24" height="24" viewBox="0 0 24 24" fill="none" xmlns="http://www.w3.org/2000/svg">
<g clip-path="url(#clip0_1826_24721)">
<path d="M12 2.375C7.44352 2.375 3.75 6.06852 3.75 10.625C3.75 12.9024 4.67276 14.9645 6.16519 16.4573C7.65803 17.951 11.175 20.1125 11.3813 22.3813C11.4122 22.7214 11.6585 23 12 23C12.3415 23 12.5878 22.7214 12.6187 22.3813C12.825 20.1125 16.342 17.951 17.8348 16.4573C19.3272 14.9645 20.25 12.9024 20.25 10.625C20.25 6.06852 16.5565 2.375 12 2.375Z" fill="#FF4433"/>
<path d="M11.9998 13.5133C13.5945 13.5133 14.8873 12.2205 14.8873 10.6258C14.8873 9.03106 13.5945 7.73828 11.9998 7.73828C10.4051 7.73828 9.1123 9.03106 9.1123 10.6258C9.1123 12.2205 10.4051 13.5133 11.9998 13.5133Z" fill="white"/>
</g>
<defs>
<clipPath id="clip0_1826_24721">
<rect width="24" height="24" fill="white"/>
</clipPath>
</defs>
</svg>
